<svg xmlns="http://www.w3.org/2000/svg" width="85" height="85" viewBox="0 0 85 85"><path fill="#F2F2F2" d="M42.5 2.8C20.61 2.8 2.8 20.61 2.8 42.5c0 21.89 17.81 39.7 39.7 39.7 21.89 0 39.7-17.81 39.7-39.7 0-21.89-17.81-39.7-39.7-39.7zm0 78c-21.12 0-38.3-17.18-38.3-38.3S21.38 4.2 42.5 4.2s38.3 17.18 38.3 38.3-17.18 38.3-38.3 38.3zm0-74.73C22.41 6.07 6.07 22.41 6.07 42.5S22.41 78.93 42.5 78.93 78.93 62.59 78.93 42.5 62.59 6.07 42.5 6.07zm0 71.46c-19.31 0-35.03-15.72-35.03-35.03 0-19.31 15.72-35.03 35.03-35.03 19.31 0 35.03 15.72 35.03 35.03 0 19.31-15.72 35.03-35.03 35.03zm16.32-51.35c-1.71-1.71-3.98-2.65-6.4-2.65-2.41 0-4.69.94-6.39 2.65L35.06 37.15l.5.5-9.53 9.53c-1.57 1.57-2.44 3.67-2.44 5.89 0 2.23.87 4.32 2.44 5.9 1.58 1.57 3.67 2.44 5.9 2.44s4.32-.87 5.89-2.44l9.53-9.53.51.5 10.96-10.97c1.71-1.7 2.65-3.98 2.65-6.39 0-2.42-.94-4.69-2.65-6.4zM36.21 57.35c-1.14 1.15-2.66 1.78-4.28 1.78s-3.14-.63-4.28-1.78c-1.15-1.14-1.78-2.66-1.78-4.28.01-1.61.63-3.13 1.78-4.28l9.18-9.18 8.56 8.56-9.18 9.18zM57.4 29.3c-.47.47-1.23.47-1.7 0-1.81-1.81-4.75-1.81-6.56 0l-9.57 9.57c-.03.03-.07.06-.1.08l-1.67-1.69c.01-.03.04-.06.07-.09l9.57-9.57c2.75-2.74 7.21-2.74 9.96 0 .47.47.47 1.23 0 1.7z"/></svg>