<?xml version="1.0" encoding="utf-8"?>
<!-- Generator: Adobe Illustrator 16.0.0, SVG Export Plug-In . SVG Version: 6.00 Build 0)  -->
<!DOCTYPE svg PUBLIC "-//W3C//DTD SVG 1.1//EN" "http://www.w3.org/Graphics/SVG/1.1/DTD/svg11.dtd">
<svg version="1.1" id="Layer_1" xmlns="http://www.w3.org/2000/svg" xmlns:xlink="http://www.w3.org/1999/xlink" x="0px" y="0px"
	 width="85px" height="85px" viewBox="0 0 85 85" enable-background="new 0 0 85 85" xml:space="preserve">
<path id="medex_x5F_logo" fill="#F2F2F2" d="M42.5,2.8C20.61,2.8,2.8,20.61,2.8,42.5c0,21.89,17.81,39.7,39.7,39.7
	c21.89,0,39.7-17.811,39.7-39.7C82.2,20.61,64.39,2.8,42.5,2.8z M42.5,80.8c-21.12,0-38.3-17.18-38.3-38.3S21.38,4.2,42.5,4.2
	s38.3,17.18,38.3,38.3S63.62,80.8,42.5,80.8z M42.5,6.07C22.41,6.07,6.07,22.41,6.07,42.5S22.41,78.93,42.5,78.93
	S78.93,62.59,78.93,42.5S62.59,6.07,42.5,6.07z M42.5,77.53C23.19,77.53,7.47,61.81,7.47,42.5c0-19.31,15.72-35.03,35.03-35.03
	c19.31,0,35.03,15.72,35.03,35.03C77.53,61.81,61.81,77.53,42.5,77.53z M58.82,26.18c-1.71-1.71-3.98-2.65-6.4-2.65
	c-2.41,0-4.689,0.94-6.39,2.65L35.06,37.15l0.5,0.5l-9.53,9.53c-1.57,1.57-2.44,3.67-2.44,5.891c0,2.229,0.87,4.319,2.44,5.899
	c1.58,1.57,3.67,2.44,5.9,2.44s4.32-0.87,5.89-2.44l9.53-9.529l0.511,0.5l10.96-10.97c1.71-1.7,2.649-3.98,2.649-6.39
	C61.47,30.16,60.53,27.89,58.82,26.18z M36.21,57.35c-1.14,1.15-2.66,1.78-4.28,1.78c-1.62,0-3.14-0.63-4.28-1.78
	c-1.15-1.14-1.78-2.659-1.78-4.279c0.01-1.61,0.63-3.13,1.78-4.28l9.18-9.18l8.56,8.56L36.21,57.35z M57.4,29.3
	c-0.471,0.47-1.23,0.47-1.7,0c-1.811-1.81-4.75-1.81-6.561,0l-9.57,9.57c-0.03,0.03-0.07,0.06-0.1,0.08l-1.67-1.69
	c0.01-0.03,0.04-0.06,0.07-0.09l9.57-9.57c2.75-2.74,7.21-2.74,9.96,0C57.87,28.07,57.87,28.83,57.4,29.3z"/>
</svg>
