<?xml version="1.0" encoding="utf-8"?>
<!-- Generator: Adobe Illustrator 16.0.0, SVG Export Plug-In . SVG Version: 6.00 Build 0)  -->
<!DOCTYPE svg PUBLIC "-//W3C//DTD SVG 1.1//EN" "http://www.w3.org/Graphics/SVG/1.1/DTD/svg11.dtd">
<svg version="1.1" id="Layer_1" xmlns="http://www.w3.org/2000/svg" xmlns:xlink="http://www.w3.org/1999/xlink" x="0px" y="0px"
	 width="26px" height="26px" viewBox="0 0 26 26" enable-background="new 0 0 26 26" xml:space="preserve">
<g>
	<path fill="none" stroke="#000000" stroke-width="2.0803" stroke-miterlimit="10" d="M9,4.429V3c0-1.421,0.619-2,2-2h4
		c1.381,0,2,0.579,2,2v1.429"/>
	<path d="M23,4L23,4c0-0.551-0.449-1-1-1H4C3.449,3,3,3.449,3,4l0,0H2v2h22V4H23z"/>
	<path d="M4,7v16c0,1.654,1.346,3,3,3h12c1.654,0,3-1.346,3-3V7H4z M10,22H8V10h2V22z M14,22h-2V10h2V22z M18,22h-2V10h2V22z"/>
</g>
</svg>
