<?xml version="1.0" encoding="utf-8"?>
<!-- Generator: Adobe Illustrator 16.0.0, SVG Export Plug-In . SVG Version: 6.00 Build 0)  -->
<!DOCTYPE svg PUBLIC "-//W3C//DTD SVG 1.1//EN" "http://www.w3.org/Graphics/SVG/1.1/DTD/svg11.dtd">
<svg version="1.1" id="Layer_1" xmlns="http://www.w3.org/2000/svg" xmlns:xlink="http://www.w3.org/1999/xlink" x="0px" y="0px"
	 width="40px" height="40px" viewBox="0 0 40 40" enable-background="new 0 0 40 40" xml:space="preserve">
<path fill="#F2F2F2" d="M26.509,24.464c-1.063-1.631-1.932-2.162-2.074-2.283c2.916-1.01,5.219-3.232,5.219-7.342v-0.053
	c0-7.676-8.867-8.076-12.689-8.076c-0.746,0-1.523,0.027-2.293,0.072V3.87L4.978,9.106l9.693,5.236v-2.959
	c2.996-0.035,7.754,0.172,7.754,4.164c0,4.748-5.246,4.17-7.742,4.17h-0.012v-2.455l-6.238-3.309v7.951h0.014v0.289v14.264h6.236
	V24.647h3.537c1.086,0,3.174,2.977,10.326,11.811h6.689L26.509,24.464z"/>
</svg>
