<?xml version="1.0" encoding="utf-8"?>
<!-- Generator: Adobe Illustrator 16.0.0, SVG Export Plug-In . SVG Version: 6.00 Build 0)  -->
<!DOCTYPE svg PUBLIC "-//W3C//DTD SVG 1.1//EN" "http://www.w3.org/Graphics/SVG/1.1/DTD/svg11.dtd">
<svg version="1.1" id="Layer_1" xmlns="http://www.w3.org/2000/svg" xmlns:xlink="http://www.w3.org/1999/xlink" x="0px" y="0px"
	 width="85px" height="85px" viewBox="0 0 85 85" enable-background="new 0 0 85 85" xml:space="preserve">
<circle fill-rule="evenodd" clip-rule="evenodd" fill="#0D283D" cx="42.5" cy="42.5" r="42.5"/>
<g display="none">
	<circle display="inline" fill="#0D283D" cx="42.5" cy="42.5" r="37.363"/>
	
		<circle display="inline" fill="none" stroke="#F2F2F2" stroke-width="4.6703" stroke-miterlimit="10" cx="42.5" cy="42.5" r="37.363"/>
	
		<circle display="inline" fill="none" stroke="#0D283D" stroke-width="1.8681" stroke-miterlimit="10" cx="42.5" cy="42.5" r="37.363"/>
</g>
<g id="caplet" display="none">
	<path display="inline" fill="none" stroke="#F2F2F2" stroke-width="2.2837" stroke-miterlimit="10" d="M36.831,37.996L47.006,48.17
		l-9.989,9.99c-2.81,2.811-7.367,2.811-10.176,0.001c-2.811-2.811-2.81-7.366,0-10.177L36.831,37.996z"/>
	<path display="inline" fill="#F2F2F2" stroke="#F2F2F2" stroke-width="2.402" stroke-miterlimit="10" d="M57.971,27.03
		c3.064,3.064,3.064,8.031,0,11.095L47.855,48.24L36.761,37.145L46.875,27.03C49.938,23.966,54.906,23.966,57.971,27.03z"/>
	<path display="inline" fill="none" stroke="#0D283D" stroke-width="2.402" stroke-linecap="round" stroke-miterlimit="10" d="
		M56.551,28.45c-2.28-2.28-5.977-2.28-8.257,0l-9.571,9.571"/>
	
		<rect x="36.29" y="38.1" transform="matrix(0.7 0.7141 -0.7141 0.7 39.2772 -15.6662)" display="inline" fill="#F2F2F2" width="3.994" height="1.64"/>
</g>
</svg>
