<?xml version="1.0" encoding="utf-8"?>
<!-- Generator: Adobe Illustrator 16.0.0, SVG Export Plug-In . SVG Version: 6.00 Build 0)  -->
<!DOCTYPE svg PUBLIC "-//W3C//DTD SVG 1.1//EN" "http://www.w3.org/Graphics/SVG/1.1/DTD/svg11.dtd">
<svg version="1.1" id="Layer_1" xmlns="http://www.w3.org/2000/svg" xmlns:xlink="http://www.w3.org/1999/xlink" x="0px" y="0px"
	 width="75px" height="75px" viewBox="0 0 75 75" enable-background="new 0 0 75 75" xml:space="preserve">
<g>
	<path fill="#9DB0C3" d="M66.636,40H56.003l-7.785,7.538L38.202,33.451c-1.703-2.613-3.22-3.511-3.447-3.704
		C39.432,28.128,43,24.523,43,17.936V17.85C43,5.544,28.786,4.901,22.655,4.901S9,6.06,9,6.06v23.667V53h10V34h5.912
		c1.766,0,5.176,4.729,17.032,19.353c0.012,0.018,0.023,0.405,0.035,0.423L26.475,70h10.635l9.335-9.458L52.99,70h10.634
		L52.648,54.293L66.636,40z M19,25.757V12.431c4,0,12.412-0.971,12.412,6.641S23,25.757,19,25.757z"/>
</g>
</svg>
