<?xml version="1.0" encoding="utf-8"?>
<!-- Generator: Adobe Illustrator 16.0.0, SVG Export Plug-In . SVG Version: 6.00 Build 0)  -->
<!DOCTYPE svg PUBLIC "-//W3C//DTD SVG 1.1//EN" "http://www.w3.org/Graphics/SVG/1.1/DTD/svg11.dtd">
<svg version="1.1" id="Layer_1" xmlns="http://www.w3.org/2000/svg" xmlns:xlink="http://www.w3.org/1999/xlink" x="0px" y="0px"
	 width="26px" height="26px" viewBox="0 0 26 26" enable-background="new 0 0 26 26" xml:space="preserve">
<path d="M24.5,1c0-0.5-0.5-1-1-1h-2.8c-0.5,0-0.9,0.4-1,0.9L18,19.3v-7.6c0-0.4-0.2-0.8-0.6-1l-5.9-3.3L11,10h2l-2.6,5H12l-4,7l1-6
	H7.6l1.7-5H7l1.3-4.6l-7.7,4.3c-0.4,0.2-0.6,0.6-0.6,1V25c0,0.6,0.4,1,1,1h24l0,0c0.6,0,1-0.4,1-0.9C26,25,24.5,1,24.5,1z M15,17h-2
	v-3h2V17z M15,23h-2v-3h2V23z M5,17H3v-3h2V17z M5,23H3v-3h2V23z"/>
</svg>
