<?xml version="1.0" encoding="utf-8"?>
<!-- Generator: Adobe Illustrator 16.0.0, SVG Export Plug-In . SVG Version: 6.00 Build 0)  -->
<!DOCTYPE svg PUBLIC "-//W3C//DTD SVG 1.1//EN" "http://www.w3.org/Graphics/SVG/1.1/DTD/svg11.dtd">
<svg version="1.1" id="Layer_1" xmlns="http://www.w3.org/2000/svg" xmlns:xlink="http://www.w3.org/1999/xlink" x="0px" y="0px"
	 width="26px" height="26px" viewBox="0 0 26 26" enable-background="new 0 0 26 26" xml:space="preserve">
<path d="M16,0.5h-6c-1.1,0-2,0.9-2,2v6c0,1.1,0.9,2,2,2h6c1.1,0,2-0.9,2-2v-6C18,1.4,17.1,0.5,16,0.5z M16,6.5h-2v2h-2v-2h-2v-2h2
	v-2h2v2h2V6.5z"/>
<rect x="11" y="18.5" width="4" height="7"/>
<rect x="11" y="13.5" width="4" height="3"/>
<rect x="17" y="13.5" width="4" height="3"/>
<rect x="5" y="13.5" width="4" height="3"/>
<rect x="17" y="18.5" width="4" height="3"/>
<rect x="5" y="18.5" width="4" height="3"/>
<path fill="none" stroke="#000000" stroke-width="2" stroke-miterlimit="10" d="M7,5.5H3.8C2.3,5.5,1,6.8,1,8.3v17.2h24V8.3
	c0-1.5-1.3-2.8-2.8-2.8H19"/>
</svg>
