<?xml version="1.0" encoding="utf-8"?>
<!-- Generator: Adobe Illustrator 16.0.0, SVG Export Plug-In . SVG Version: 6.00 Build 0)  -->
<!DOCTYPE svg PUBLIC "-//W3C//DTD SVG 1.1//EN" "http://www.w3.org/Graphics/SVG/1.1/DTD/svg11.dtd">
<svg version="1.1" id="Layer_1" xmlns="http://www.w3.org/2000/svg" xmlns:xlink="http://www.w3.org/1999/xlink" x="0px" y="0px"
	 width="20px" height="20px" viewBox="0 0 20 20" enable-background="new 0 0 20 20" xml:space="preserve">
<path fill="#D88E29" d="M10,0C4.478,0,0,4.478,0,10s4.478,10,10,10s10-4.478,10-10S15.522,0,10,0z M9.998,17.441
	c-0.954,0-1.609-0.701-1.609-1.608c0-0.933,0.682-1.609,1.609-1.609c0.982,0,1.609,0.677,1.609,1.609
	C11.607,16.74,10.98,17.441,9.998,17.441z M10.602,12.617c-0.232,0.904-0.962,0.92-1.205,0c-0.281-1.063-1.275-5.093-1.275-7.712
	c0-3.452,3.77-3.469,3.77,0C11.891,7.54,10.842,11.674,10.602,12.617z"/>
</svg>
